<?xml version="1.0" encoding="UTF-8"?>
<svg id="Layer_1" xmlns="http://www.w3.org/2000/svg" version="1.1" viewBox="0 0 306 396">
  <!-- Generator: Adobe Illustrator 29.7.1, SVG Export Plug-In . SVG Version: 2.1.1 Build 8)  -->
  <defs>
    <style>
      .st0 {
        fill: #fff;
      }
    </style>
  </defs>
  <g>
    <path class="st0" d="M278.04,213.08c1.42-.2,3.05.15,4.87,1.07,1.83.91,3.14,1.73,3.96,2.44-.41.4-.69.63-.84.68-.15.05-.33.05-.53,0-.21-.05-.48-.13-.84-.23-.36-.1-.84-.1-1.45,0-1.52.31-3.76,1.3-6.7,2.97-2.94,1.68-5.99,3.56-9.14,5.64-3.15,2.08-6.07,4.11-8.75,6.09-2.69,1.98-4.44,3.42-5.25,4.34.51.81,1.01,1.58,1.52,2.28.51.71,1.01,1.47,1.52,2.28,1.52,2.74,2.18,5.48,1.98,8.22-.2,2.74-1.04,5.41-2.51,7.99-1.47,2.59-3.43,5-5.86,7.23-2.44,2.23-5.02,4.11-7.77,5.63-1.83,1.01-3.88,1.75-6.17,2.21-2.28.46-4.52.61-6.7.46-2.18-.15-4.21-.59-6.09-1.3-1.88-.71-3.35-1.75-4.41-3.12s-1.62-3.02-1.68-4.95c-.05-1.93.69-4.16,2.21-6.7,2.34-3.86,5.35-7.46,9.06-10.81,3.7-3.35,7.48-6.5,11.34-9.44-1.83-2.64-3.68-5.15-5.56-7.53-1.88-2.38-3.18-5.05-3.88-7.99-.61-2.64-.73-5.3-.38-7.99.36-2.69,1.09-5.25,2.21-7.69,1.12-2.43,2.56-4.69,4.34-6.77,1.77-2.08,3.78-3.88,6.01-5.41,1.12-.71,2.44-1.04,3.96-.99,1.52.05,3.04.33,4.57.84s2.92,1.12,4.19,1.83c1.27.71,2.26,1.32,2.97,1.83,2.64-4.26,4.95-7.44,6.93-9.52,1.98-2.08,3.58-3.68,4.8-4.8.71-.51,1.68-.38,2.89.38,1.22.76,2.36,1.78,3.43,3.05s1.88,2.56,2.44,3.88c.56,1.32.48,2.23-.23,2.74-1.62,1.12-3.55,2.89-5.78,5.33-2.24,2.43-4.32,5.02-6.24,7.76-1.93,2.74-3.43,5.41-4.49,7.99-1.07,2.59-1.24,4.7-.53,6.32-.51.21-1.19.15-2.06-.15-.86-.31-1.73-.76-2.59-1.37-.86-.61-1.65-1.39-2.36-2.36-.71-.96-1.22-2-1.52-3.12-.2-.81-.2-1.75,0-2.82.2-1.07.46-2.11.76-3.12.31-1.01.66-1.98,1.07-2.89.4-.91.71-1.62.91-2.13-1.93-.1-3.73.94-5.4,3.12-1.68,2.18-2.92,4.8-3.73,7.84-.81,3.05-1.12,6.22-.92,9.52.2,3.3,1.27,6.06,3.2,8.29,1.93-1.21,4.19-2.74,6.78-4.57s5.2-3.63,7.84-5.41c2.64-1.77,5.25-3.32,7.84-4.64s4.84-2.13,6.77-2.44ZM228.86,262.87c1.42-.1,3.12-.89,5.1-2.36,1.98-1.47,3.81-3.22,5.48-5.25,1.67-2.03,2.99-4.11,3.96-6.24.96-2.13,1.14-3.86.53-5.18-3.15,2.95-6.12,5.91-8.91,8.91-2.79,3-4.85,6.37-6.17,10.12Z"/>
    <g>
      <path class="st0" d="M108.72,230.59c-1.63,3.55-4.37,7.51-8.22,11.87-3.86,4.37-8.35,8.58-13.48,12.64-5.13,4.06-10.66,7.69-16.6,10.89-5.94,3.2-11.75,5.51-17.43,6.93-5.69,1.42-11.02,1.65-15.99.68-4.97-.96-9.14-3.63-12.48-7.99-2.95-3.86-4.41-7.92-4.41-12.18s.91-8.57,2.74-12.94c1.93-4.67,4.62-9.21,8.07-13.62,3.45-4.42,6.95-8.38,10.51-11.88,3.55-3.5,6.83-6.37,9.82-8.6,2.99-2.23,5.05-3.55,6.17-3.96-1.32-1.22-2.72-2.54-4.19-3.96-1.47-1.42-2.77-2.97-3.88-4.65-1.12-1.67-1.88-3.53-2.28-5.56-.41-2.03-.2-4.26.61-6.7,1.01-2.84,2.66-5.61,4.95-8.29,2.28-2.69,4.72-5.18,7.31-7.46,2.59-2.28,5.02-4.24,7.31-5.86,2.28-1.62,3.93-2.74,4.95-3.35,3.86-2.23,7.31-3.83,10.35-4.8,3.05-.96,5.73-1.39,8.07-1.3,2.33.1,4.39.63,6.17,1.6,1.77.97,3.32,2.16,4.64,3.58,1.73,2.03,2.84,4.34,3.35,6.93.51,2.59.38,5.25-.38,7.99-.76,2.74-2.21,5.53-4.34,8.38-2.13,2.84-4.92,5.53-8.38,8.07-1.22.91-2.79.97-4.72.15-1.93-.81-3.6-1.95-5.03-3.43-1.42-1.47-2.26-3.02-2.51-4.64-.25-1.62.69-2.84,2.82-3.66,1.22-.4,2.66-1.17,4.34-2.28,1.68-1.12,3.15-2.31,4.42-3.58,1.27-1.27,2.21-2.56,2.82-3.88.61-1.32.56-2.38-.15-3.2-.41-.5-1.6-.38-3.58.38s-4.32,1.93-7,3.5c-2.69,1.57-5.51,3.43-8.45,5.56-2.95,2.13-5.66,4.39-8.15,6.77-2.49,2.39-4.52,4.75-6.09,7.08-1.57,2.34-2.26,4.47-2.06,6.4.1,1.42.66,2.38,1.68,2.89,1.01.51,2.13.79,3.35.84,1.22.05,2.41-.05,3.58-.31,1.17-.25,1.95-.43,2.36-.53,1.83-.51,3.6-.02,5.33,1.45,1.73,1.47,3.12,3.17,4.19,5.1,1.07,1.93,1.62,3.76,1.67,5.48.05,1.73-.74,2.64-2.36,2.74-1.52.21-3.76,1.14-6.7,2.82-2.94,1.67-6.12,3.83-9.52,6.47-3.4,2.64-6.85,5.61-10.35,8.91-3.5,3.3-6.65,6.65-9.44,10.05-2.79,3.4-4.97,6.73-6.55,9.98-1.57,3.25-2.11,6.09-1.6,8.52.51,3.05,2.33,4.77,5.48,5.18,3.15.41,6.98-.13,11.5-1.6,4.51-1.47,9.52-3.73,15-6.78,5.48-3.05,10.83-6.57,16.06-10.58,5.23-4.01,10.07-8.32,14.54-12.94,4.46-4.62,8.02-9.26,10.66-13.93.71-1.32,1.34-1.6,1.9-.84.56.76.91,2.01,1.07,3.73.15,1.73.13,3.71-.08,5.94-.2,2.23-.66,4.16-1.37,5.78Z"/>
      <path class="st0" d="M188.65,217.5c.71-.91,1.57-1.22,2.59-.91,1.01.1,1.98.61,2.89,1.52.81.91,1.07,1.93.76,3.05-1.42,3.05-3.12,6.17-5.1,9.36-1.98,3.2-4.34,6.47-7.08,9.82-2.64,3.25-5.15,6.04-7.54,8.38-2.39,2.33-4.64,4.11-6.77,5.33-2.13.81-4.32,1.02-6.55.61-2.44-.61-4.72-1.47-6.85-2.59-2.13-1.32-3.35-2.69-3.65-4.11-.21-1.73-.15-3.63.15-5.71.31-2.08.86-4.44,1.68-7.08.81-2.64,1.6-4.97,2.36-7,.76-2.03,1.45-3.86,2.06-5.48.2-.51.38-.91.53-1.22s.23-.61.23-.91c-4.57,4.26-9.85,10.76-15.84,19.49-3.05,4.36-5.66,8.29-7.84,11.8-2.18,3.5-4.03,6.57-5.56,9.21-.71,1.32-2.18,1.83-4.41,1.52-1.12-.1-2.18-.33-3.2-.68-1.02-.36-2.03-.78-3.05-1.3-1.83-1.12-2.59-2.38-2.28-3.81,2.23-7.61,6.39-18.47,12.48-32.58,6.29-14.31,12.94-27.91,19.95-40.8-1.83.1-3.65.25-5.48.45-1.83.21-3.65.41-5.48.61-3.96,6.09-7.59,12.39-10.89,18.88-3.3,6.5-6.37,13.25-9.21,20.25-2.74,6.9-4.92,13.25-6.55,19.03-1.62,5.78-2.64,11.11-3.05,15.99-.71,9.64,2.13,14.47,8.53,14.47-3.76,3.86-8.27,4.57-13.55,2.13-5.38-2.44-8.53-7.92-9.44-16.44-.1-3.55.46-7.81,1.68-12.79,1.22-4.97,2.99-10.81,5.33-17.51,2.54-6.6,5.28-13.22,8.22-19.87,2.94-6.65,6.19-13.42,9.74-20.33-2.95.91-5.74,1.93-8.38,3.05-2.64,1.12-5.02,2.38-7.16,3.81-1.12.61-2.28.45-3.5-.46-1.12-.91-2.13-2.23-3.05-3.96-.4-.71-.76-1.42-1.07-2.13-.3-.71-.51-1.42-.61-2.13-.3-1.52,0-2.49.92-2.9,4.37-1.62,9.03-3.09,14.01-4.41s10.25-2.49,15.84-3.5c2.94-4.97,5.76-9.36,8.45-13.17,2.69-3.81,5.35-7.03,7.99-9.67,1.42-1.42,3.4-1.47,5.94-.15,2.44,1.02,4.42,2.74,5.94,5.18,1.32,2.23,1.22,4.36-.31,6.39-2.64,2.64-5.33,5.64-8.07,8.99,1.73-.1,3.4-.18,5.02-.23,1.62-.05,3.2-.08,4.72-.08,3.14-4.67,5.94-8.17,8.37-10.51,2.13-1.52,4.42-1.93,6.85-1.22,2.54.92,4.62,2.24,6.24,3.96,1.52,1.83,1.83,3.5.91,5.02-.51.2-1.14.61-1.9,1.21-.76.61-1.6,1.43-2.51,2.44,2.33.31,4.44.71,6.32,1.22,1.88.51,3.63,1.07,5.25,1.67,3.45,1.32,5.89,3.4,7.31,6.24.51,1.42.86,2.79,1.07,4.11.2,1.32.2,2.69,0,4.11-.61,2.64-1.68,4.31-3.2,5.02.71-3.35-1.17-6.14-5.63-8.38-2.34-1.01-5.08-1.88-8.22-2.59-3.15-.71-6.75-1.22-10.81-1.52-9.34,12.59-17.87,28.32-25.58,47.2,3.65-5.08,7.66-10.15,12.03-15.23,2.13-2.44,4.19-4.62,6.17-6.55,1.98-1.93,3.88-3.5,5.71-4.72,1.01-.51,2.06-.86,3.12-1.07s2.21-.1,3.43.31c2.44.81,4.41,2.03,5.94,3.65,1.42,1.93,1.77,3.71,1.07,5.33-.41.81-.84,1.7-1.3,2.66-.46.97-.99,2.01-1.6,3.12-1.12,2.33-2.23,4.7-3.35,7.08-1.12,2.38-2.23,4.85-3.35,7.39-2.34,5.18-3.56,9.54-3.65,13.09,4.77-2.54,9.44-6.65,14.01-12.33,2.23-2.94,4.24-5.73,6.01-8.38,1.77-2.64,3.37-5.23,4.8-7.76Z"/>
      <path class="st0" d="M229.46,234.09c.81-.1,1.39.18,1.75.84.35.66.53,1.42.53,2.28s-.18,1.65-.53,2.36c-.36.71-.79,1.07-1.3,1.07-2.33.31-4.52.4-6.55.31-2.03-.1-4.41-.61-7.15-1.52-.51,1.02-1.17,2.41-1.98,4.19-.81,1.78-1.8,3.6-2.97,5.48-1.17,1.88-2.54,3.71-4.11,5.48-1.57,1.78-3.32,3.18-5.25,4.19-1.63.91-3.68,1.2-6.17.84-2.49-.36-4.97-1.09-7.46-2.21-2.49-1.12-4.69-2.53-6.62-4.26-1.93-1.73-3.14-3.6-3.65-5.64-.81-2.74-.96-5.73-.46-8.98.51-3.25,1.32-6.42,2.44-9.52,1.12-3.09,2.46-5.94,4.03-8.52,1.58-2.59,3.07-4.54,4.49-5.86.51-.51,1.07-.96,1.68-1.37.61-.4,1.17-.86,1.68-1.37-.41-2.13-.66-4.29-.76-6.47-.1-2.18.4-4.29,1.52-6.32.91-1.62,2.82-2.66,5.71-3.12,2.89-.45,5.94-.23,9.14.68,3.2.92,6.11,2.59,8.76,5.02,2.64,2.44,4.21,5.69,4.72,9.75.51,3.76.48,7.36-.08,10.81-.56,3.45-1.24,7-2.06,10.66.92.61,2.41,1.07,4.49,1.37,2.08.31,4.13.26,6.16-.15ZM190.78,251.6c3.96-2.33,6.88-5.07,8.75-8.22,1.88-3.14,3.53-6.5,4.95-10.05-3.56-2.43-6.29-5.53-8.22-9.29-.51.51-1.17,1.88-1.98,4.11-.81,2.24-1.6,4.8-2.36,7.69-.76,2.89-1.3,5.78-1.6,8.68-.31,2.89-.15,5.25.46,7.08ZM206.77,224.66c.61-1.42,1.01-3.12,1.22-5.1.2-1.98.23-3.96.08-5.94-.15-1.98-.41-3.76-.76-5.33-.36-1.57-.74-2.72-1.14-3.43-1.62,2.03-2.36,4.82-2.21,8.38.15,3.55,1.09,7.36,2.82,11.42Z"/>
    </g>
  </g>
  <g>
    <path class="st0" d="M47.18,136.25h-2.03v-8.23h-9.21v8.23h-2.03v-17.49h2.03v7.44h9.21v-7.44h2.03v17.49Z"/>
    <path class="st0" d="M82.04,136.25l-2.18-5.56h-7.01l-2.15,5.56h-2.06l6.92-17.57h1.71l6.88,17.57h-2.11ZM79.23,128.86l-2.03-5.42c-.26-.69-.53-1.53-.81-2.52-.18.77-.43,1.61-.75,2.52l-2.06,5.42h5.66Z"/>
    <path class="st0" d="M119.96,136.25h-2.01l-3.53-11.71c-.17-.52-.35-1.17-.56-1.96s-.31-1.26-.32-1.42c-.18,1.05-.45,2.21-.84,3.46l-3.42,11.64h-2.01l-4.65-17.49h2.15l2.76,10.81c.38,1.52.66,2.89.84,4.12.22-1.46.53-2.89.96-4.28l3.14-10.64h2.15l3.29,10.73c.38,1.24.71,2.63.97,4.19.15-1.13.44-2.51.86-4.14l2.75-10.78h2.15l-4.68,17.49Z"/>
    <path class="st0" d="M156.5,136.25l-2.18-5.56h-7.01l-2.15,5.56h-2.06l6.92-17.57h1.71l6.88,17.57h-2.11ZM153.69,128.86l-2.03-5.42c-.26-.69-.53-1.53-.81-2.52-.18.77-.43,1.61-.75,2.52l-2.06,5.42h5.66Z"/>
    <path class="st0" d="M180.06,136.25v-17.49h2.03v17.49h-2.03Z"/>
    <path class="st0" d="M205.51,136.25v-17.49h2.03v17.49h-2.03Z"/>
    <path class="st0" d="M242.4,136.25l-2.18-5.56h-7.01l-2.15,5.56h-2.06l6.92-17.57h1.71l6.88,17.57h-2.11ZM239.59,128.86l-2.03-5.42c-.26-.69-.54-1.53-.81-2.52-.18.77-.43,1.61-.75,2.52l-2.06,5.42h5.66Z"/>
    <path class="st0" d="M279.63,136.25h-2.32l-9.56-14.68h-.1c.13,1.72.19,3.3.19,4.74v9.94h-1.88v-17.49h2.3l9.54,14.62h.1c-.02-.22-.05-.91-.11-2.08-.06-1.17-.08-2-.06-2.51v-10.04h1.9v17.49Z"/>
  </g>
</svg>