<?xml version="1.0" encoding="UTF-8"?>
<svg id="Layer_1" xmlns="http://www.w3.org/2000/svg" version="1.1" viewBox="0 0 360 360">
  <!-- Generator: Adobe Illustrator 29.7.1, SVG Export Plug-In . SVG Version: 2.1.1 Build 8)  -->
  <defs>
    <style>
      .st0 {
        fill: #fff;
      }
    </style>
  </defs>
  <path class="st0" d="M96.35,169.1c1.92-3.16,21.12-22.47,23.6-31.96,0,0,.53-4.91-1.88-2.85-2.78,2.38-18.07,2.51-23.19,4.25-2.29,2.2-4.6,4.97-6.3,6.64-1.87,1.83-4.3,4.11-6.26,5.85-7.88,6.9-15.22,12.42-19.94,18.41-2.39,2.96-4.01,5.62-4.94,7.52-.05.1-.08.17-.13.27-2.09,12.2-4.23,24.19-6.52,35.78-2.12,10.73-4.31,21.11-6.61,30.9,4.11,8.76,9.02,17.06,14.67,24.81.86-5.21,2.95-16.55,6.55-27.72,4.92-15.32,3.78-13.66,13.02-31.29,4.07-7.77,14.9-35.61,17.93-40.61"/>
  <path class="st0" d="M35.44,161.59c1.35,2.05,2.74,4.09,3.88,6.23,1.23,2.09,2.23,4.23,3.25,6.28,1.92,4.09,3.72,7.9,5.25,11.17.41.78.79,1.54,1.15,2.26,2.94-13.54,5.44-25.67,8.34-39.65-.2-.37-3.47-8.56-4.21-10.26-1.42-3.39-2.91-7.21-4.69-11.35-.9-2.07-1.62-3.88-2.63-6-.47-1-1.11-2.04-1.77-3.06-5.81,12.5-9.97,25.91-12.16,39.98,1.24,1.41,2.41,2.91,3.57,4.41"/>
  <path class="st0" d="M39.38,228.43c1.4-5.53,2.8-11.2,4.18-16.99,1.34-5.63,2.66-11.37,3.94-17.19-.4-.77-.83-1.71-1.33-2.68-.73-1.39-1.31-2.93-2.07-4.63-1.34-3.37-2.95-5.71-4.63-9.93-.87-2.06-1.82-4.04-2.87-6.11-.97-2.13-2-3.99-3.18-6.05-.72-1.06-1.44-2.02-2.19-2.96-.75,6.07-1.17,12.23-1.17,18.49,0,17.68,3.08,34.63,8.69,50.38.2-.78.4-1.55.61-2.34"/>
  <path class="st0" d="M84.42,68.13c-4.95,10.79-9.86,22.17-13.38,34-1.79,5.93-2.84,12.11-4.02,18.36-.02.11-.03.22-.06.34,4.31-4.55,9.72-8.97,15.04-14.2,2.7-2.66,5.41-5.49,7.9-8.57,2.56-3.11,5.17-6.27,7.77-9.43,10.51-12.57,21.38-24.8,29.57-33.93.29-.32.56-.63.84-.94,3.97-5.26,8.18-11.57,10.86-17.69-19.12,5.46-36.69,14.6-51.87,26.62-.88,1.82-1.79,3.58-2.66,5.43"/>
  <path class="st0" d="M45.57,113.97l.34.49c.68,1.02,1.27,2.1,1.9,3.14,1.24,2.09,2.33,4.22,3.35,6.28,2.04,4.13,3.76,8.02,5.34,11.27.8,1.6.96,1.73,1.66,2.96.05.09.76,1.27.81,1.03.2-.94.49-2.33.86-4.09.2-.88,1.05-6.02,1.11-6.17.66-3.05,1.23-5.95,1.92-8.98,1.42-6.17,2.11-11.79,4.11-17.81,4.19-12.56,8.1-23.41,13.8-34.01.04-.07.06-.13.1-.2-14.56,12.86-26.6,28.49-35.29,46.08"/>
  <path class="st0" d="M138.3,61.13c-4.09,2.09-12.61,4.76-17.77,4.9-6.04,7.32-13.53,15.85-20.05,24.21-2.49,3.24-5.5,6.95-7.95,10.14-2.46,3.27-5.36,6.2-8.02,9.01-5.32,5.63-10.43,10.06-14.3,14.53-.96,1.12-3.57,4.54-3.78,5.17,0,.01-.5,1.34-.51,1.36-1.18,2.94-1.69,5.73-2.22,8.79-1.57,9.28-3.11,18.58-4.66,27.8.07-.08.15-.16.21-.25,4.6-6.4,12.72-12.77,20.95-19.19,2.05-1.62,4.36-3.48,6.28-5.15,1.93-1.7,3.89-3.62,5.15-5.67,1.99-2.96,4.32-5.16,6.01-7.75,2.36-3.98,5.36-8.82,8.78-13.85,0,0,0,0,0-.01,5.11-7.51,11.15-15.43,17.38-21.48,2.71-2.64,11.06-9.76,12.72-18.46,1.5-7.75,2.42-10.6,3.99-13.24,1.42-2.4-1-1.82-2.22-.86"/>
  <path class="st0" d="M148.8,288.2c8.54-5.33,43.12-34.19,77.23-48.75,15.75-5.5,36.14-9.9,43.7-14.2,1.66-.94,5.61-2.8,5.98-4.24.27-1.06-1.67,1.77-8.04-2.45-6.81-5.86-12.09-7.62-17.08-8.89-3.33,0-6.94,1.16-8.86,1.9-10.5,4.09-18.12,4.17-29.12,8.57-2.76,1.08-10.3,3.82-12.92,5.05-2.7,1.3-5.78,3.15-8.37,4.54-5.06,2.86-10.17,4.82-14.71,7.98-9.08,6.33-16.99,13.04-23.8,18.85-6.79,5.83-12.49,10.71-16.6,14.05-1.89,1.53-3.39,2.73-4.47,3.61-.39.46-.76.93-1.14,1.4-8.02,9.59-16.26,18.99-24.61,28.27-1.37,1.52-2.75,3.03-4.13,4.54,4.82,2.95,9.84,5.63,15,8.04,6.66-6.37,26.01-24.67,31.95-28.27"/>
  <path class="st0" d="M197.32,37.68c-2.49,9.89-2.7,18.41-2.63,22.42.47,1.45.98,2.96,1.52,4.58.98,2.9,1.91,6.12,2.68,9.57.81,3.47,1.29,7.12,2.09,10.76,1.68,7.33,4.41,14.98,6.72,22.84,1.16,3.92,2.19,7.96,2.9,11.97.73,4.01,1.21,7.98,1.53,11.84.63,7.71.6,14.94.2,21.14-.19,2.89-.46,5.54-.79,7.94l4.4-5.09,13.79-16.34,13.62-16.48,3.56-5.12s2.71-6.53,3.1-8.4c.82-3.84,2.87-8.19,2.87-15.21,0-7.01.13-13.81-.76-22.55-.49-4.24-1.75-9.16-3.18-13.54-1.2-3.67-2.64-8.76-3.94-13-13.73-6.59-28.63-11.12-44.29-13.27-1.44,2-2.9,3.96-3.41,5.95"/>
  <path class="st0" d="M99.49,297.96c8.46-9.08,16.78-18.26,24.89-27.61,4.05-4.68,8.05-9.4,11.99-14.17,3.92-4.76,7.77-9.58,11.58-14.43,1.75-2.65,3.53-5.27,5.35-7.87.36-1.03.82-2.43,1.37-4.23.56-1.85,1.16-4.07,1.64-6.66s.35-4.82.56-8.19c.34-6.81.47-14.86.9-23.38.24-4.27.45-8.53.53-13.02.04-4.48.04-9.15.07-13.69.03-9.11-.74-16.79,0-25.35.24-2.35.16-7.19-1.13-9.77-1.12-2.52-1.88-5.79-4.85-8.32-1.82-1.55-6.93-6-9.25-9.35-.51-1.03-2.18-1.94-2.35,1.96-.09,2.07-2.78,10.9-4.21,17.52-2.89,13.38-8.71,41.27-8.37,58.85.32,16.52-13.33,44.62-20.35,55.79-19.61,31.18-25.84,42.24-27.83,46.14,4.51,4.05,9.29,7.81,14.27,11.29,1.73-1.83,3.47-3.66,5.19-5.5"/>
  <path class="st0" d="M177.53,44.21c-.91.41.09,2.31-2.72,5.21-5.25,5.42-11.91,24.22-10.05,38.4,1.36,10.45-1.08,16.96-1.88,22.78-.55,3.97-.97,7.32-1.28,10.11.05,1.3.1,2.58.13,3.93.11,3.93-.06,8.12-.29,12.35-.36,8.49-.05,17.56.32,26.66.16,4.56.32,9.12.48,13.61.12,4.48.17,8.97.13,13.23-.11,8.56.06,16.43.02,23.37-.02,2.53-.12,4.96-.33,7.22,3.95-5.11,7.99-10.13,12.08-15.07l13.98-17c4.59-5.69,7.58-10.21,11.8-16.13l2.04-3.74c.31-.67,1.07-2.86,1.44-4.13.94-3.18,2.36-7.59,2.95-13.54.6-5.96,1.77-12.45,1.43-19.96-.17-3.75-.51-7.62-1.07-11.52-.56-3.9-1.43-7.78-2.46-11.69-2.03-7.81-4.55-15.59-6.05-23.19-.77-3.82-1.72-7.29-2.29-10.68-.54-3.43-.81-5.21-1.6-8.15-.33-1.25-1.13-3.59-2.11-4.8-3.59-5.2-5.44-7.36-8.22-10.37-1.64-1.77-3.37-5.56-4.24-7.16-.52-.95-1.41-.1-2.21.26"/>
  <path class="st0" d="M316.96,118.66c-2.14.49-5.26,1-7.21,1.49-4.23,1.17-7.93,2.18-12.21,3.23-4.25,1.06-11.75,2.49-15.84,3.23-8.19,1.45-13.78,2.19-20.18,3.74-6.35,1.53-5.61,1.54-9.08,2.57-1.72.49-8.62,2.96-9.23,3.32-.1.07-2.87.7-5.22,2.73l-3.54,3.64-13.54,16.61-13.64,16.34c-1.37,1.98-2.78,3.92-4.19,5.86.39-.13.77-.27,1.18-.41,2.35-.84,5-1.46,7.88-2.31,2.91-.65,6.05-1.48,9.39-2.09,3.34-.67,6.87-1.3,10.52-1.85,3.64-.61,7.43-1.09,11.26-1.62,3.84-.48,7.74-.97,11.63-1.45,12.19-1.44,34.58-4.58,43.76-7.59-.03,0,14.86-3.96,20.01-6.68,3.39-1.86,6.37-4.13,8.72-6.15-2.24-11.39-5.78-22.3-10.44-32.6"/>
  <path class="st0" d="M286.42,75.03c-8.63,11.37-17.35,22.67-26.09,33.96l-11.75,16.33c3.67-.74,7.05-1.07,12.35-1.65,6.59-.72,14.24-1.45,22.37-2.61,4.06-.59,8.24-1.27,12.45-2.16,4.18-.87,8.44-2.04,12.74-3.07,2.17-.47,4.34-.93,6.5-1.4h.01c-7.24-14.79-16.84-28.2-28.32-39.77l-.27.36Z"/>
  <path class="st0" d="M283.44,72.73l.53-.68c-9.83-9.42-20.92-17.53-33.02-24.02.64,1.69,1.28,3.38,1.89,5.07,1.57,4.42,2.99,8.87,3.65,13.45,1.15,8.88,1.84,17.15,2.04,24.34.14,5.25,0,9.89-.4,13.68,8.48-10.58,16.91-21.19,25.3-31.84"/>
  <path class="st0" d="M193.47,193.35l-13.73,17.29c-4.56,5.74-9.06,11.49-13.37,17.36-2.15,2.93-4.25,5.9-6.3,8.89-2.04,2.99-4.02,6.03-5.96,9.09l-.07.12-.11.14c-1.11,1.48-2.26,2.92-3.39,4.38,6.72-5.27,14.48-11.26,23.36-16.94,4.78-3.05,9.87-5.99,15.16-8.72,2.65-1.29,5.4-2.68,8.12-3.85,2.82-1.18,5.64-2.3,8.49-3.28,11.39-4.01,23.01-6.87,33.55-10.48,2.63-.88,5.19-1.91,7.73-2.83,2.58-.9,5.09-1.72,7.55-2.48,4.92-1.48,9.57-2.88,13.87-4.18,2.2-.66,4.29-1.3,6.28-1.94,4.21-1.7,8.51-3.54,12.63-5.52,9.43-4.51,17.31-5.66,19.22-10.72,1.01-2.67,7.11-6,5.85-7.72-1.61.51-3.58.9-5.33,0-4.9-2.53-8.72-3.23-12.76-2.62-10.85,2.33-25.8,4.22-39.3,6.41-3.86.65-8.31,1.07-12.11,1.71-3.79.7-6.3,1.04-10.5,1.57-3.63.45-7.3,1.32-10.54,2.12-3.26.74-6.03,1.67-8.83,2.42-2.72.94-5.34,1.71-7.47,2.58-2.12.89-4.01,1.56-5.55,2.31-1.48.73-2.91,1.51-3.73,1.92-.94,1.23-1.82,1.74-2.77,2.96"/>
  <path class="st0" d="M192.25,329.95c1.08-1.56,2.2-3.49,3.49-5.62,2.59-4.33,3.52-7.11,7.51-13.09,1.77-2.66,5.13-5.77,7.38-8.13,2.25-2.39,5.14-5.58,7.42-8,5-5.34,9.99-11.7,14.55-16.71-.08-2.12-1.81-5.81-2.43-7.52q-.93-2.54-1.55-5.09c-.46-1.89-2.08-.47-2.55.7-1.79,8.95-25.87,14.81-43.01,37.06-19.84,18.69-27.48,16.97-40.17,22.27,11.92,3.05,24.41,4.68,37.28,4.68,4.07,0,8.1-.21,12.08-.53"/>
  <path class="st0" d="M316.87,242.32c-1.13,1.2-2.22,2.45-3.1,3.71-3.3,4.71-12.9,8.73-18.58,12.19-3.07,2.21-5.6,5.26-8.32,8.04-2.83,2.9-6.03,6.54-8.17,9.31-2.23,2.88-3.34,4.63-5.14,7.64-3.62,6.04-5.57,11.22-8.4,17.25-.86,1.85-1.34,3.37-1.77,4.82,23.22-15.5,41.84-37.31,53.48-62.97"/>
  <path class="st0" d="M259.97,298.22c2.83-6.05,5.47-11.72,9.18-17.92,1.85-3.09,3.62-6.61,5.98-9.31,2.34-2.63,4.92-5.64,7.14-8.15,1.42-1.57,3.77-4.09,4.92-5.99-.36-.92-1.43-5.85-1.85-9.57-.45-4.04,2.45-6.69,2.45-6.69,0,0,.25-2.19-3.65-1.14-3.9,1.06-7.51,6.55-9.88,9.3-4.11,4.77-21.98,13.7-27.92,19.86-2.52,2.61-5.07,5.25-7.17,7.43-5.34,6.55-11.52,14.09-17.82,21.56-2.17,2.54-4.33,5.08-6.47,7.59-2.14,2.51-4.25,4.89-6.11,7.33-3.8,4.84-6.73,9.7-9.05,14.07-.51.94-.99,1.85-1.47,2.73,20.31-2.44,39.36-8.93,56.33-18.65,1.85-3.82,2.96-7.24,5.37-12.47"/>
  <path class="st0" d="M180.17,3.99C82.74,3.99,3.76,82.96,3.76,180.39s78.98,176.4,176.4,176.4,176.4-78.98,176.4-176.4S277.59,3.99,180.17,3.99M180.17,345.07c-90.96,0-164.69-73.73-164.69-164.69S89.21,15.7,180.17,15.7s164.69,73.74,164.69,164.69-73.74,164.69-164.69,164.69"/>
</svg>