<?xml version="1.0" encoding="UTF-8"?>
<svg id="Layer_1" xmlns="http://www.w3.org/2000/svg" version="1.1" viewBox="0 0 360 360">
  <!-- Generator: Adobe Illustrator 29.7.1, SVG Export Plug-In . SVG Version: 2.1.1 Build 8)  -->
  <defs>
    <style>
      .st0 {
        fill-rule: evenodd;
      }

      .st0, .st1 {
        fill: #fff;
      }
    </style>
  </defs>
  <g>
    <g>
      <g>
        <path class="st0" d="M351.77,18.27c-3.64-4.31-12.12-7.32-21.99-7.32H88.92v5.75h246.29c5.41,0,10.39.9,14.4,2.43.52.2,1.22.19,1.74-.01.51-.2.69-.54.42-.84Z"/>
        <path class="st0" d="M247.61,10.95H30.22c-9.87,0-18.33,3.01-21.99,7.32-.27.3-.08.65.44.84.51.21,1.21.21,1.73.01,4.01-1.53,8.98-2.43,14.4-2.43h222.81v-5.75Z"/>
      </g>
      <g>
        <path class="st0" d="M351.77,41.97c-3.64-4.31-12.12-7.32-21.99-7.32H88.92v5.75h246.29c5.41,0,10.39.9,14.4,2.43.52.2,1.22.19,1.74-.01.51-.2.69-.54.42-.84Z"/>
        <path class="st0" d="M247.61,34.65H30.22c-9.87,0-18.33,3.01-21.99,7.32-.27.3-.08.65.44.84.51.21,1.21.21,1.73.01,4.01-1.53,8.98-2.43,14.4-2.43h222.81v-5.75Z"/>
      </g>
      <g>
        <g>
          <path class="st0" d="M338.58,337.09h-104.79c-.43,0-.78.35-.78.78s.35.78.78.78h62.63c3.27,0,6.04,0,9.29.82,4.27,1.08,7.66,3.17,10.11,6.24.15.19.38.3.62.3s.46-.11.61-.3c2.7-3.38,6.53-5.57,11.42-6.53,2.2-.43,4.19-.53,6.41-.53h3.69c2.79.07,4.39.82,5.36,2.52.65,1.13.77,2.49.34,3.72-.61,1.72-2.45,2.65-4.18,2.14.29-.28.5-.65.57-1.08.08-.5-.04-1-.34-1.41-.3-.41-.74-.68-1.23-.76-.51-.09-1,.04-1.41.34-.41.3-.68.74-.76,1.23-.05.35-.01.74.13,1.07.42,1.02,1.62,1.77,2.33,2.02.55.2,1.11.29,1.66.29,2.05,0,3.98-1.28,4.71-3.32.59-1.66.42-3.49-.45-5.02-1.63-2.85-4.59-3.25-6.7-3.31Z"/>
          <path class="st1" d="M342.73,348.78c-1.17.38-2.38.36-3.47-.03-.76-.27-2.05-1.07-2.51-2.19-.16-.38-.21-.83-.15-1.24.09-.57.41-1.08.88-1.43.48-.35,1.07-.49,1.65-.39.57.09,1.09.41,1.43.88.34.47.48,1.05.4,1.64-.05.3-.16.58-.32.83,1.44.18,2.83-.65,3.33-2.05.41-1.15.29-2.41-.31-3.46-.91-1.59-2.43-2.29-5.09-2.36h-3.68c-1.91,0-4,.06-6.35.52-4.81.95-8.59,3.11-11.24,6.42-.44.55-1.29.53-1.72-.01-2.4-3.01-5.74-5.07-9.93-6.12-3.23-.81-6-.81-9.21-.81h-62.63c-.6,0-1.09-.49-1.09-1.09s.49-1.09,1.09-1.09h104.8c2.17.05,5.25.47,6.96,3.46.93,1.63,1.1,3.59.44,5.36-.54,1.48-1.76,2.68-3.26,3.17ZM338.75,344.08c-.33,0-.63.1-.91.31-.34.25-.57.62-.63,1.03-.05.3,0,.63.11.91.38.93,1.52,1.63,2.15,1.85.74.26,1.52.33,2.33.21,1.54-.24,2.91-1.29,3.52-2.73.7-1.66.59-3.54-.3-5.09-1.55-2.72-4.41-3.1-6.43-3.15h-104.79c-.26,0-.47.21-.47.47s.21.48.47.48h62.63c3.24,0,6.05,0,9.36.83,4.33,1.09,7.78,3.22,10.27,6.35.2.24.55.25.75,0,2.74-3.43,6.64-5.67,11.6-6.64,2.41-.47,4.53-.54,6.47-.54h3.69c2.92.08,4.6.88,5.63,2.67.76,1.32.84,2.94.21,4.36-.71,1.59-2.83,2.41-4.51,1.92l-.42-.12.4-.37c.25-.24.42-.55.47-.9.07-.42-.04-.84-.28-1.18-.25-.34-.61-.57-1.03-.63-.09-.01-.18-.02-.27-.02Z"/>
        </g>
        <g>
          <path class="st0" d="M316.43,344.02c-2.13-2.41-4.82-4.2-8.04-5.36h16.08c-3.22,1.16-5.92,2.95-8.04,5.36Z"/>
          <path class="st1" d="M316.43,344.49l-.23-.26c-2.08-2.36-4.74-4.13-7.91-5.27l-1.66-.6h19.61l-1.66.6c-3.18,1.14-5.84,2.92-7.91,5.27l-.23.26ZM309.99,338.97c2.51,1.11,4.67,2.65,6.44,4.59,1.77-1.93,3.93-3.47,6.44-4.59h-12.89Z"/>
        </g>
      </g>
      <g>
        <g>
          <path class="st0" d="M14.36,340.4c-.87,1.53-1.04,3.36-.45,5.02.73,2.04,2.66,3.32,4.71,3.32.55,0,1.11-.09,1.66-.29.71-.25,1.91-1,2.33-2.02.14-.33.18-.72.13-1.07-.08-.5-.35-.93-.76-1.23-.41-.3-.9-.43-1.41-.34-.5.08-.93.35-1.23.76-.29.41-.41.91-.34,1.41.07.43.28.8.57,1.08-1.73.5-3.57-.43-4.18-2.14-.43-1.23-.31-2.58.34-3.72.97-1.69,2.57-2.44,5.36-2.52h3.69c2.22,0,4.21.1,6.41.53,4.89.96,8.72,3.15,11.42,6.53.15.19.38.3.61.3s.47-.11.62-.3c2.45-3.07,5.84-5.17,10.11-6.24,3.24-.82,6.01-.82,9.29-.82h62.63c.43,0,.78-.35.78-.78s-.35-.78-.78-.78H21.05c-2.1.05-5.07.46-6.7,3.31Z"/>
          <path class="st1" d="M16.93,348.79c-1.5-.48-2.72-1.67-3.27-3.14-.67-1.78-.51-3.75.43-5.4l.27.15-.27-.15c1.71-2.99,4.79-3.41,6.96-3.46h104.79c.6,0,1.09.49,1.09,1.09s-.49,1.09-1.09,1.09h-62.63c-3.2,0-5.97,0-9.21.81-4.19,1.05-7.53,3.11-9.93,6.12-.44.55-1.29.56-1.72.01-2.64-3.32-6.42-5.48-11.24-6.42-2.35-.46-4.44-.52-6.35-.52h-3.69c-2.66.07-4.18.78-5.09,2.36-.6,1.05-.72,2.31-.31,3.46.49,1.4,1.87,2.24,3.33,2.05-.16-.25-.27-.53-.32-.83-.09-.58.05-1.17.39-1.64.35-.48.86-.79,1.43-.88.58-.1,1.16.04,1.64.39.47.35.79.86.88,1.43.06.42,0,.87-.15,1.24-.46,1.12-1.76,1.92-2.51,2.19-1.09.39-2.28.41-3.45.04ZM21.05,337.4c-2.01.05-4.87.43-6.43,3.15h0c-.89,1.56-1.01,3.45-.29,5.11.61,1.43,1.98,2.47,3.51,2.71.8.13,1.59.06,2.33-.21.63-.22,1.77-.92,2.15-1.84.12-.27.15-.6.11-.91-.07-.41-.29-.78-.63-1.03-.35-.26-.75-.36-1.18-.28-.42.07-.79.29-1.04.64-.24.34-.34.76-.28,1.18.06.35.22.66.47.9l.4.37-.41.12c-1.67.48-3.8-.33-4.52-1.92-.64-1.42-.56-3.03.2-4.36,1.03-1.8,2.71-2.59,5.62-2.67h3.69c1.94,0,4.06.06,6.47.54,4.96.97,8.86,3.21,11.6,6.64.2.24.55.24.75,0,2.49-3.12,5.94-5.26,10.27-6.35,3.31-.83,6.12-.83,9.36-.83h62.63c.26,0,.47-.21.47-.48s-.21-.47-.47-.47H21.05Z"/>
        </g>
        <g>
          <path class="st0" d="M35.16,338.66h16.08c-3.22,1.16-5.91,2.95-8.04,5.36-2.13-2.41-4.82-4.2-8.04-5.36Z"/>
          <path class="st1" d="M43.2,344.49l-.23-.26c-2.07-2.35-4.74-4.13-7.91-5.27l-1.66-.6h19.61l-1.66.6c-3.17,1.14-5.83,2.92-7.91,5.27l-.23.26ZM36.76,338.97c2.51,1.12,4.68,2.66,6.44,4.59,1.77-1.93,3.94-3.47,6.44-4.59h-12.89Z"/>
        </g>
      </g>
      <g>
        <path class="st0" d="M351.77,319.69c-3.64-4.31-12.12-7.32-21.99-7.32H88.92v5.75h246.29c5.41,0,10.39.9,14.4,2.43.52.2,1.22.19,1.74-.01.51-.2.69-.54.42-.84Z"/>
        <g>
          <path class="st0" d="M247.61,312.37H30.22c-9.87,0-18.33,3.01-21.99,7.32-.27.3-.08.65.44.84.51.21,1.21.21,1.73.01,4.01-1.53,8.98-2.43,14.4-2.43h222.81v-5.75Z"/>
          <path class="st0" d="M351.77,331.7c-3.64-4.31-12.12-7.32-21.99-7.32H88.92v5.75h246.29c5.41,0,10.39.9,14.4,2.43.52.2,1.22.19,1.74-.01.51-.2.69-.54.42-.84Z"/>
          <path class="st0" d="M247.61,324.38H30.22c-9.87,0-18.33,3.01-21.99,7.32-.27.3-.08.65.44.84.51.21,1.21.21,1.73.01,4.01-1.53,8.98-2.43,14.4-2.43h222.81v-5.75Z"/>
        </g>
      </g>
    </g>
    <g>
      <g>
        <path class="st0" d="M42.88,30.25c.15.17.37.26.6.26s.44-.1.59-.26c2.14-2.39,5.03-4.33,8.2-5.61,3.67-1.49,6.48-1.74,10.33-1.74h3.25c.44,0,.8-.36.8-.8s-.36-.8-.8-.8H21.11c-.44,0-.8.36-.8.8s.36.8.8.8h2.87c2.78,0,4.97.02,7.74.75,4.3,1.13,8.36,3.48,11.17,6.6Z"/>
        <path class="st0" d="M52.35,22.9c-3.37,1.26-6.48,3.21-8.87,5.65-2.39-2.44-5.5-4.39-8.88-5.65h17.75Z"/>
      </g>
      <g>
        <path class="st0" d="M87.51,30.25c.15.17.37.26.6.26s.44-.1.59-.26c2.14-2.39,5.03-4.33,8.2-5.61,3.67-1.49,6.48-1.74,10.33-1.74h3.25c.44,0,.8-.36.8-.8s-.36-.8-.8-.8h-44.73c-.44,0-.8.36-.8.8s.36.8.8.8h2.87c2.78,0,4.97.02,7.74.75,4.3,1.13,8.36,3.48,11.17,6.6Z"/>
        <path class="st0" d="M96.98,22.9c-3.37,1.26-6.48,3.21-8.87,5.65-2.39-2.44-5.5-4.39-8.88-5.65h17.75Z"/>
      </g>
      <g>
        <path class="st0" d="M132.14,30.25c.15.17.37.26.6.26s.44-.1.59-.26c2.14-2.39,5.03-4.33,8.2-5.61,3.67-1.49,6.48-1.74,10.33-1.74h3.25c.44,0,.8-.36.8-.8s-.36-.8-.8-.8h-44.73c-.44,0-.8.36-.8.8s.36.8.8.8h2.87c2.78,0,4.97.02,7.74.75,4.3,1.13,8.36,3.48,11.17,6.6Z"/>
        <path class="st0" d="M141.61,22.9c-3.37,1.26-6.48,3.21-8.87,5.65-2.39-2.44-5.5-4.39-8.88-5.65h17.75Z"/>
      </g>
    </g>
    <g>
      <g>
        <path class="st0" d="M226.67,30.25c.15.17.37.26.6.26s.44-.1.59-.26c2.14-2.39,5.03-4.33,8.2-5.61,3.67-1.49,6.48-1.74,10.33-1.74h3.25c.44,0,.8-.36.8-.8s-.36-.8-.8-.8h-44.73c-.44,0-.8.36-.8.8s.36.8.8.8h2.87c2.78,0,4.97.02,7.74.75,4.3,1.13,8.36,3.48,11.17,6.6Z"/>
        <path class="st0" d="M236.14,22.9c-3.37,1.26-6.48,3.21-8.87,5.65-2.39-2.44-5.5-4.39-8.88-5.65h17.75Z"/>
      </g>
      <g>
        <path class="st0" d="M271.3,30.25c.15.17.37.26.6.26s.44-.1.59-.26c2.14-2.39,5.03-4.33,8.2-5.61,3.67-1.49,6.48-1.74,10.33-1.74h3.25c.44,0,.8-.36.8-.8s-.36-.8-.8-.8h-44.73c-.44,0-.8.36-.8.8s.36.8.8.8h2.87c2.78,0,4.97.02,7.74.75,4.3,1.13,8.36,3.48,11.17,6.6Z"/>
        <path class="st0" d="M280.77,22.9c-3.37,1.26-6.48,3.21-8.87,5.65-2.39-2.44-5.5-4.39-8.88-5.65h17.75Z"/>
      </g>
      <g>
        <path class="st0" d="M315.93,30.25c.15.17.37.26.6.26s.44-.1.59-.26c2.14-2.39,5.03-4.33,8.2-5.61,3.67-1.49,6.48-1.74,10.33-1.74h3.25c.44,0,.8-.36.8-.8s-.36-.8-.8-.8h-44.73c-.44,0-.8.36-.8.8s.36.8.8.8h2.87c2.78,0,4.97.02,7.74.75,4.3,1.13,8.36,3.48,11.17,6.6Z"/>
        <path class="st0" d="M325.4,22.9c-3.37,1.26-6.48,3.21-8.87,5.65-2.39-2.44-5.5-4.39-8.88-5.65h17.75Z"/>
      </g>
    </g>
    <g>
      <g>
        <path class="st1" d="M97.32,239.38c-13.61.27-20.41.13-34.01-1.16,2.03-1.23,3.51-2.85,4.44-4.83.93-1.98,1.51-4.11,1.74-6.38.23-2.27.34-4.45.34-6.52v-19.81c-11.67-.82-17.5-1.69-29.17-4.82v20.24c0,2.13.11,4.41.34,6.83s.8,4.78,1.71,7.08c.91,2.3,2.4,4.37,4.47,6.16-13.61-2.21-20.41-3.79-34.01-8.35,2.03-.94,3.51-2.41,4.44-4.39.93-1.98,1.51-4.18,1.74-6.61.23-2.44.34-4.78.34-7.03v-46.37c0-2.41-.11-5.04-.34-7.89-.23-2.85-.81-5.69-1.74-8.51-.93-2.82-2.41-5.46-4.44-7.93,13.61,5.29,20.41,7.1,34.01,9.61-2.07,1.46-3.56,3.37-4.47,5.79-.91,2.42-1.48,5.04-1.71,7.87-.23,2.84-.34,5.51-.34,8.04v23.23c11.67,3.17,17.5,4.05,29.17,4.86,0-8.07,0-13.55,0-23.41,0-2.56-.11-5.33-.34-8.29-.23-2.97-.81-5.82-1.74-8.57-.93-2.75-2.41-5.14-4.44-7.22,13.61,1.4,20.41,1.51,34.01,1.05-2.07,1.91-3.56,4.2-4.47,6.86-.91,2.66-1.48,5.46-1.71,8.38-.23,2.92-.34,5.65-.34,8.17,0,15.19,0,30.39,0,45.58,0,2.1.11,4.3.34,6.61.23,2.31.8,4.49,1.71,6.55.91,2.06,2.4,3.79,4.47,5.18Z"/>
        <path class="st1" d="M194.09,222.84c-14.52,3.27-21.79,5.02-36.31,8.22,1.49-1.87,2.23-4.17,2.23-6.89,0-2.04-.31-4.11-.93-6.22-.62-2.11-1.3-4.12-2.05-6.02-.37-1.06-.56-1.59-.93-2.66-8.81,2.23-13.22,3.31-22.03,5.24.37,2.99.56,5.92.56,8.78,0,1.9-.35,3.89-1.06,5.97-.7,2.08-1.82,3.91-3.35,5.51-1.53,1.59-3.56,2.61-6.08,3.05-10.3,1.81-15.46,1.3-25.76,1.54,3.15-1.72,5.78-3.88,7.91-6.47,2.13-2.59,3.82-5.33,5.06-8.22,9.07-21.38,17.31-42.97,25.32-64.77,0-2.03-.62-4.17-1.86-6.46-1.24-2.29-2.4-3.93-3.48-4.9,6.41-1.31,9.61-2.02,16.01-3.5v.06c2.63-.61,3.95-.92,6.58-1.55,8.45,20.58,17.19,41.02,25.95,61.47,1.24,3.31,2.93,6.67,5.06,10.11,2.13,3.44,5.18,6,9.16,7.7ZM155.23,207.14c-5.83-14.41-11.52-28.9-16.88-43.48-.02.03-.04.05-.06.08-.1-.18-.15-.27-.25-.46-2.15,5.69-3.63,11.04-4.44,16.03-.81,5-1.21,9.68-1.21,14.05,0,3.06.12,6,.37,8.79.32,3.54.68,6.91,1.06,10.11,8.57-1.88,12.85-2.94,21.41-5.12Z"/>
        <path class="st1" d="M226.74,216.69c-6.83,1.3-12.88,1.67-18.16,1.09-5.28-.57-9.43-2.21-12.45-4.92-3.02-2.72-4.53-6.64-4.53-11.85,0-3.69.73-7.01,2.2-9.96,1.47-2.95,3.41-5.43,5.84-7.43,2.42-2,5.04-3.37,7.85-4.1,3.56-.93,6.51-.82,8.85.32,2.34,1.14,3.51,2.86,3.51,5.13-2.19.52-4.02,1.83-5.49,3.92-1.47,2.09-2.2,5.06-2.2,8.93s.94,6.86,2.82,9.26c1.88,2.39,4.37,4.05,7.45,4.97,3.08.92,6.44,1.06,10.09.38,3.85-.71,7.03-2.3,9.56-5,2.52-2.7,3.79-5.62,3.79-8.73,0-3.74-1.16-7.13-3.48-10.07-2.32-2.94-5.31-5.58-8.97-7.72-3.66-2.15-7.64-4.1-11.83-5.91-3.42-1.48-6.81-3.05-10.12-4.62-3.31-1.57-6.3-3.29-8.97-5.17-2.67-1.88-4.81-4.06-6.42-6.54-1.61-2.48-2.42-5.43-2.42-8.82,0-4.08,1.02-7.72,3.07-10.9,2.05-3.17,4.67-5.79,7.85-7.85,3.18-2.06,6.5-3.47,9.93-4.25,3.85-.87,9-1.74,15.39-2.43,4.28-.46,8.23-.9,11.79-1.24,2.03-.19,4.73-.53,8.1-.98,3.37-.45,6.03-.97,7.98-1.61v9.19c0,1.91-.56,3.78-1.68,5.63-1.12,1.85-2.69,3.44-4.72,4.78-2.03,1.34-4.45,2.2-7.26,2.56-2.57.33-5.06-.02-7.48-.78-2.42-.76-4.75-1.81-6.98-3.15-2.23-1.34-4.37-2.71-6.39-4.11-2.19-1.52-4.22-2.78-6.08-3.79-1.86-1.01-3.5-1.35-4.9-1.02-1.16.27-2.07.78-2.73,1.53-.66.75-.99,1.69-.99,2.8,0,2.19.96,4.18,2.89,5.96,1.92,1.78,4.44,3.5,7.54,5.16,3.1,1.67,6.51,3.36,10.21,5.12,3.7,1.76,7.4,3.72,11.08,5.9,3.68,2.18,7.05,4.66,10.12,7.56,3.06,2.9,5.53,6.19,7.42,9.78,1.88,3.6,2.82,7.58,2.82,11.88,0,5.53-1.33,10.46-4,14.75-2.67,4.29-6.53,7.74-11.58,10.4-5.05,2.66-11.15,4.59-18.31,5.95Z"/>
        <path class="st1" d="M347.28,224.43c-13.61-4.59-20.41-6.18-34.01-8.42,2.03-1.52,3.51-3.48,4.44-5.94.93-2.45,1.51-5.08,1.74-7.92.23-2.84.34-5.55.34-8.13v-24.19c-11.67-3.17-17.5-4.06-29.17-4.91,0,9.75,0,14.68,0,24.63,0,2.64.11,5.45.34,8.43.23,2.98.8,5.86,1.71,8.64.91,2.78,2.4,5.2,4.47,7.28-13.61-1.31-20.41-1.47-34.01-1.21,2.03-1.92,3.51-4.22,4.44-6.92.93-2.7,1.51-5.52,1.74-8.47s.34-5.73.34-8.35c0-16.09,0-32.19,0-48.28,0-2.11-.11-4.35-.34-6.72-.23-2.37-.81-4.61-1.74-6.7-.93-2.09-2.41-3.85-4.44-5.25,13.61-.43,20.41-.32,34.01,1.11-2.07,1.23-3.56,2.86-4.47,4.87-.91,2.01-1.48,4.18-1.71,6.51-.23,2.33-.34,4.53-.34,6.6v21.16c11.67.84,17.5,1.74,29.17,4.94v-21.34c0-2.12-.11-4.41-.34-6.87-.23-2.46-.81-4.88-1.74-7.23-.93-2.35-2.41-4.47-4.44-6.32,13.61,2.53,20.41,4.37,34.01,9.69-2.07.81-3.56,2.21-4.47,4.15-.91,1.95-1.48,4.14-1.71,6.6-.23,2.45-.34,4.79-.34,7.02,0,15.82,0,31.64,0,47.47,0,2.46.11,5.1.34,7.92.23,2.82.8,5.62,1.71,8.39.91,2.77,2.4,5.34,4.47,7.73Z"/>
      </g>
      <g>
        <path class="st1" d="M11.2,58.25v-.74c3.3.08,4.96.12,8.26.19v5.38c-3.3-1.99-4.96-2.96-8.26-4.83ZM20.19,116.99v5.82c-2.69-.75-4.03-1.15-6.72-1.99v-.74c2.69-1.13,4.03-1.75,6.72-3.08ZM19.37,57.69c7.08.15,10.62.21,17.7.32v33.38c6.68.75,10.02,1.05,16.7,1.56v-34.71c7.08.08,10.62.11,17.7.15v72.82c-7.08-.44-10.62-.76-17.7-1.67v-32.46c-6.68-.51-10.02-.83-16.7-1.59v31.34c-7.08-1.41-10.62-2.25-17.7-4.25V57.69ZM36.7,63.85v-5.84c2.9.05,4.36.07,7.26.11v.84c-2.9,2.01-4.36,2.99-7.26,4.9ZM43.42,127.19v.81c-2.69-.46-4.03-.71-6.72-1.25v-5.7c2.69,2.47,4.03,3.69,6.72,6.13ZM46.87,59v-.84c2.9.04,4.36.05,7.26.08v6.1c-2.9-2.16-4.36-3.23-7.26-5.35ZM54.13,123.72v5.87c-2.69-.34-4.03-.53-6.72-.94v-.81c2.69-1.59,4.03-2.42,6.72-4.12ZM77.36,130.68v.83c-2.47-.1-3.7-.17-6.17-.33v-5.95c2.47,2.2,3.7,3.29,6.17,5.44ZM71.37,64.55v-6.16c3.3.02,4.96.03,8.26.05v.89c-3.3,2.12-4.96,3.16-8.26,5.23Z"/>
        <path class="st1" d="M84.71,125.78v5.96c-2.69-.05-4.03-.09-6.72-.2v-.83c2.69-1.94,4.03-2.93,6.72-4.93ZM101.59,62.63c-4.63,23.08-9.38,46.13-14.25,69.15-1.38-.02-2.07-.03-3.45-.06v-4.18c5.95-21.64,11.76-43.31,17.42-65.03.11.04.16.07.27.11ZM98.69,130.91v.83c-4.54.09-6.81.1-11.34.05v-6.27c4.54,2.24,6.81,3.32,11.34,5.39ZM89.89,109.48c10.75.12,16.12.01,26.86-.36v1.05c-10.75.39-16.12.5-26.86.38v-1.06ZM117.56,58.48c4.8,22.47,9.85,44.84,15.25,67.17v3.19c-6.82,1.25-10.24,1.83-17.06,2.23-5.1-21.99-9.97-44.02-14.7-66.08-.04-.18-.05-.27-.09-.45-.58-1.96-.87-2.95-1.45-4.92v-1.12c7.22,0,10.84,0,18.06,0ZM116.29,124.59v6.43c-4.76.28-7.13.4-11.89.56v-.82c4.76-2.43,7.13-3.67,11.89-6.17ZM138.71,126.93v.79c-2.69.52-4.03.77-6.72,1.26v-5.69c2.69,1.5,4.03,2.23,6.72,3.65Z"/>
        <path class="st1" d="M134.63,59.13v-.86c2.29-.04,3.43-.06,5.72-.1v6.22c-2.29-2.06-3.43-3.11-5.72-5.26ZM139.44,60.41v-2.23c7.33-.13,11-.19,18.33-.33,2.84,21.23,5.74,42.46,8.8,63.66-.18.04-.27.06-.45.1,2.81-21.36,5.63-42.72,8.53-64.07,6.79-.13,10.18-.19,16.97-.32,2.69,19.05,5.43,38.08,8.17,57.12-.18.04-.27.06-.45.1,2.9-19.2,5.92-38.38,9.17-57.53,1.85-.03,2.78-.05,4.63-.08v1.02c-4.79,18.9-9.17,37.9-13.34,56.94-5.88,1.25-8.82,1.89-14.7,3.18-3.13-19.73-6.21-39.47-9.17-59.23,1.34-.03,2.02-.05,3.36-.08-4.39,21.09-8.55,42.22-12.71,63.35-6.75,1.46-10.13,2.18-16.88,3.56-3.62-21.68-6.98-43.4-10.26-65.13ZM156.41,64.26v-6.38c4.54-.08,6.81-.13,11.34-.21v.76c-4.54,2.24-6.81,3.41-11.34,5.83ZM198.52,57.75v-.67c4.14-.08,6.21-.12,10.35-.19v4.79c-4.14-1.5-6.21-2.29-10.35-3.93ZM212.13,61.24v-4.41c2.29-.04,3.43-.06,5.72-.1v.61c-2.29,1.52-3.43,2.3-5.72,3.9Z"/>
        <path class="st1" d="M216.4,106.58v4.77c-2.69.53-4.03.8-6.72,1.35v-.68c2.69-2.21,4.03-3.3,6.72-5.44ZM233.28,59.11c-5.06,17.19-9.75,34.38-14.25,51.72-1.38.27-2.07.4-3.45.68v-3.35c5.49-16.49,10.97-32.96,17.43-49.11.11.03.16.04.27.06ZM230.37,108.06v.65c-4.54.81-6.81,1.24-11.34,2.12v-4.99c4.54.89,6.81,1.32,11.34,2.21ZM221.57,93c10.74-1.62,16.12-2.35,26.86-2.64v.76c-10.74.31-16.12,1.04-26.86,2.69v-.81ZM249.25,56.39c5.37,15.73,10.32,31.59,15.25,47.46v2.48c-6.82.08-10.24.2-17.06.55-4.75-15.46-9.5-30.93-14.7-46.25-.04-.11-.05-.17-.09-.28-.58-1.25-.87-1.87-1.45-3.13v-.72c7.22-.12,10.84-.11,18.06-.12ZM247.98,101.88v4.97c-4.76.24-7.13.06-11.89.86v-.65c4.76-2.58,7.13-3.25,11.89-5.18ZM270.4,105.69v.62c-2.69-.01-4.03,0-6.72.03v-4.41c2.69,1.49,4.03,2.24,6.72,3.77Z"/>
        <path class="st1" d="M270.03,56.96v-.56c3.3,0,4.95.01,8.26.03v3.94c-3.3-1.39-4.95-2.07-8.26-3.41ZM278.29,102.06c0,1.75,0,2.62,0,4.38-2.47-.07-3.7-.09-6.17-.12v-.62c2.47-1.49,3.7-2.22,6.17-3.65ZM278.2,56.43c7.08.03,10.62.05,17.7.11v50.92c-7.08-.62-10.62-.82-17.7-1.02,0-16.67,0-33.34,0-50.01ZM295.81,60.6v-4.06c3.3.03,4.96.04,8.26.08v.59c-3.3,1.38-4.96,2.05-8.26,3.39ZM301.98,107.44v.62c-2.47-.27-3.7-.4-6.17-.61v-4.41c2.47,1.72,3.7,2.6,6.17,4.4Z"/>
        <path class="st1" d="M307.52,63.09c-.81-.81-1.22-1.97-1.22-3.48,0-2.17.79-3.79,2.38-4.89,1.59-1.09,3.79-1.65,6.61-1.65v.4c-1.55,0-2.86.16-3.92.48s-1.83.71-2.33,1.17c-.49.46-.74.89-.74,1.3,0,.64.64.97,1.91.99,3.6.05,5.4,1.26,5.4,3.62,0,1.11-.41,1.96-1.24,2.56-.83.6-1.93.86-3.31.81-1.55-.06-2.73-.49-3.54-1.31Z"/>
        <path class="st1" d="M317.22,57.39v-.62c3.3.05,4.95.07,8.26.12v4.46c-3.3-1.65-4.95-2.44-8.26-3.97ZM325.48,107.13v4.68c-2.47-.52-3.7-.76-6.17-1.21v-.65c2.47-1.14,3.7-1.7,6.17-2.82ZM325.38,56.89c7.08.11,10.62.18,17.7.34,0,19.67,0,39.35,0,59.02-7.08-2.1-10.62-2.98-17.7-4.46,0-18.3,0-36.6,0-54.89ZM342.99,62.07v-4.84c3.3.07,4.96.11,8.26.19v.72c-3.3,1.64-4.96,2.42-8.26,3.93ZM349.16,117.43v.72c-2.47-.81-3.7-1.19-6.17-1.92v-4.97c2.47,2.39,3.7,3.62,6.17,6.18Z"/>
      </g>
      <g>
        <path class="st1" d="M13.99,290.84c-3.92-3.96-5.88-10.63-5.88-19.61,0-5.8,1.04-10.51,3.13-13.96,2.08-3.45,5.03-5.62,8.86-6.64,3.82-1.01,8.33-.95,13.54-.04,3.02.53,5.82,1.15,8.37,1.89,2.55.74,5.2,1.61,7.92,2.6-1.7,6.26-2.54,9.39-4.24,15.67-.3-.02-.45-.04-.74-.06-1.93-5.24-3.57-9.29-4.91-12.04-1.34-2.75-2.57-4.66-3.68-5.68-1.12-1.02-2.42-1.66-3.91-1.92-2.53-.45-4.51.83-5.95,3.93-1.44,3.1-2.16,8.98-2.16,17.51,0,8.9.72,15.06,2.16,18.44,1.44,3.38,3.47,5.01,6.1,5.02,1.54,0,2.88-.47,4.02-1.41,1.14-.94,2.37-2.72,3.68-5.33,1.31-2.61,2.94-6.54,4.87-11.75.3.02.45.03.74.05,1.79,6.83,2.68,10.17,4.46,16.7-3.32.71-6.57,1.29-9.75,1.73-3.18.44-6.18.67-9,.67-7.84,0-13.72-1.8-17.63-5.76Z"/>
        <path class="st1" d="M59.05,291.66c-3.7-3.36-5.54-8.57-5.54-15.57,0-7.58,2.14-13.13,6.44-16.5,4.29-3.37,10.28-4.76,17.97-4.47,7.29.28,12.79,2.01,16.48,5.4,3.7,3.39,5.54,8.51,5.54,15.21,0,7.25-2.15,12.45-6.44,15.83-4.29,3.38-10.28,5.05-17.97,5.05-7.29,0-12.79-1.59-16.48-4.94ZM80.55,294.57c1.02-1.05,1.8-2.98,2.34-5.81.55-2.84.82-6.9.82-12.29s-.25-9.93-.74-12.93c-.5-3-1.23-5.06-2.19-6.16-.97-1.1-2.29-1.68-3.98-1.75-1.59-.06-2.89.43-3.91,1.5-1.02,1.06-1.8,3.1-2.34,6.08-.55,2.98-.82,7.25-.82,12.72s.25,9.91.74,12.81c.5,2.89,1.23,4.84,2.2,5.87.97,1.03,2.29,1.54,3.98,1.54,1.59,0,2.89-.52,3.91-1.57Z"/>
        <path class="st1" d="M101.65,256.3v-.5c2.71-.04,4.06-.07,6.77-.14v3.56c-2.71-1.16-4.06-1.74-6.77-2.92ZM107.9,292.87v3.22c-2.02,0-3.04,0-5.06,0v-.45c2.02-1.1,3.04-1.66,5.06-2.77ZM107.67,293.83c.27-13.58.4-20.71.67-35.67v-2.5c5.54-.15,8.3-.26,13.84-.53,3.13,9.4,4.69,13.6,7.81,22.54,1.39,3.95,2.36,6.83,2.9,8.63-.15,0-.22.01-.37.02.4-1.4.79-2.79,1.19-4.17,3.19-11.32,4.78-17.37,7.96-29.97,6.01-.99,9.02-1.51,15.03-2.57v2.79c.12,16.67.18,24.85.3,40.92v2.68c-5.65.02-8.48.02-14.14.04,0-10.47,0-15.83,0-26.8,0-4.36.25-9.5.74-15.49.15-.02.22-.04.37-.06-.85,3.19-2.41,8.31-4.69,15.05-3.07,9.18-4.6,13.58-7.67,21.85-4.32.12-6.47.24-10.79.25-3.36-8.25-5.05-12.5-8.41-21.18-1.93-5.03-3.32-9.25-4.17-12.56.18,0,.27,0,.45-.01.35,4.5.74,10.97,1.19,19.11.45,8.18.67,12.16,1.12,19.89-1.34,0-2.01,0-3.35,0v-2.26ZM119.73,295.64v.45c-3.72,0-5.58,0-9.3,0v-3.11c3.72,1.07,5.58,1.6,9.3,2.66ZM143.02,292.53v3.51c-3.72.01-5.58.02-9.3.03v-.48c3.72-1.17,5.58-1.78,9.3-3.06ZM156.63,253.6v-3.97c2.71-.48,4.06-.72,6.77-1.2v.57c-2.71,1.88-4.06,2.8-6.77,4.61ZM161.99,295.44v.55c-2.02,0-3.04,0-5.06.01v-3.82c2.02,1.27,3.04,1.92,5.06,3.26Z"/>
        <path class="st1" d="M164.37,248.82v-.57c2.71-.49,4.06-.73,6.77-1.22v4.14c-2.71-.96-4.06-1.43-6.77-2.34ZM171.29,291.88v4.08c-2.02,0-3.04,0-5.06.01v-.56c2.02-1.38,3.04-2.09,5.06-3.54ZM171.07,247.03c7.26-1.32,10.89-1.99,18.16-3.31,7.09-1.29,12.25-.84,15.48,1.44,3.22,2.28,4.84,6.16,4.84,11.59s-2.02,10.19-6.06,13.61c-4.04,3.42-9.76,5.34-17.15,5.94-.3.02-.45.04-.74.06v19.56c-5.8.02-8.71.03-14.51.04,0-16.31,0-32.62,0-48.92ZM192.28,295.27v.63c-2.71,0-4.06.01-6.77.02v-4.27c2.71,1.41,4.06,2.13,6.77,3.62ZM191.01,274.05c.89-.85,1.59-2.42,2.08-4.7.5-2.28.74-5.54.74-9.74,0-6.17-.52-10.29-1.56-12.37-1.04-2.08-2.53-2.93-4.46-2.58-.74.13-1.49.34-2.23.63,0,12.03,0,18.06,0,30.15.69.09,1.36.11,2.01.06,1.39-.12,2.53-.59,3.42-1.45Z"/>
        <path class="st1" d="M209.91,291.06v4.78c-2.2,0-3.3,0-5.51.02v-.66c2.2-1.63,3.3-2.45,5.51-4.14ZM223.75,240.81c-3.89,18.34-7.76,36.69-11.68,55.02-1.13,0-1.7,0-2.83,0v-3.35c4.81-17.23,9.56-34.47,14.29-51.73.09.02.13.03.22.05ZM221.37,295.11v.7c-3.72.01-5.58.02-9.3.03v-5.08c3.72,1.68,5.58,2.55,9.3,4.35ZM214.5,276.86c8.81-.56,13.22-.83,22.03-1.33,0,.36-.35,1.54-.35,1.9-8.81.47-13.22.73-22.03,1.27,0-.34.35-1.51.35-1.85ZM236.85,235.77c4.39,18.97,8.51,37.99,12.5,57.05v2.95c-5.6,0-8.39,0-13.99,0-3.76-17.77-7.78-35.49-12.05-53.15-.03-.13-.04-.19-.07-.32-.48-1.39-.71-2.08-1.19-3.46v-.82c5.92-.95,8.88-1.41,14.81-2.26ZM235.81,290.01v5.76c-3.9,0-5.85.01-9.75.02v-.71c3.9-1.98,5.85-2.99,9.75-5.07ZM254.19,295.03v.74c-2.2,0-3.3,0-5.51,0v-5.26c2.2,1.8,3.3,2.7,5.51,4.52Z"/>
        <path class="st1" d="M253.89,235.78v-.69c2.71-.06,4.06-.08,6.77-.11v4.95c-2.71-1.69-4.06-2.52-6.77-4.15ZM260.81,290.51c0,2.1,0,3.15,0,5.26-2.02,0-3.04,0-5.06,0v-.74c2.02-1.81,3.04-2.72,5.06-4.52ZM260.59,234.98c5.98-.06,8.97-.05,14.96.08,6.94,13.15,13.74,26.37,20.54,39.59-.4-5.21-.82-10.36-1.26-15.47-.74-9.41-1.12-14.08-1.86-23.36,1.46.1,2.19.15,3.65.26v59.7c-2.71,0-4.06,0-6.77,0-9.46-18.55-18.87-37.13-28.65-55.51.1,1.68.2,4.1.3,7.26.05,1.58.11,3.18.19,4.8.07,1.62.16,3.26.26,4.92.92,15.1,1.38,22.81,2.31,38.52-1.46,0-2.19,0-3.65,0,0-20.26,0-40.52,0-60.78ZM274.95,295.04v.74c-4.58,0-6.88,0-11.46,0v-5.25c4.58,1.81,6.88,2.72,11.46,4.52ZM284.62,236.07v-.69c3.72.17,5.58.27,9.3.53v5.1c-3.72-2.01-5.58-3-9.3-4.94ZM296.53,240.92v-4.83c2.71.21,4.06.32,6.77.59v.68c-2.71,1.38-4.06,2.1-6.77,3.56Z"/>
        <path class="st1" d="M303.97,237.42v-.68c1.88.19,2.81.28,4.69.5v4.84c-1.88-1.87-2.81-2.8-4.69-4.66ZM320.56,272.41c-5.42-13.43-8.13-20.37-13.54-34.16v-1.19c5.74.62,8.62.99,14.36,1.88,5.36,14.81,8.04,22.17,13.39,36.2-.36-.03-.54-.05-.89-.07,4.49-13.25,6.74-19.56,11.24-31.41,1.52.37,2.28.56,3.79.96v1.13c-5.54,10.33-8.3,15.98-13.84,27.98v22.15c-5.8-.02-8.71-.02-14.51-.04v-23.43ZM320.64,291v4.84c-2.71,0-4.06,0-6.77-.01v-.69c2.71-1.69,4.06-2.51,6.77-4.13ZM321.16,244.21v-5.31c4.23.65,6.34,1.02,10.57,1.83v.64c-4.23,1-6.34,1.57-10.57,2.83ZM334.85,241.99v-.64c4.23.86,6.34,1.34,10.57,2.37v4.91c-4.23-2.67-6.34-4-10.57-6.64ZM341.77,295.27v.63c-2.71,0-4.06-.01-6.77-.02v-4.6c2.71,1.64,4.06,2.44,6.77,4ZM346.83,248.65v-4.57c2.02.51,3.04.77,5.06,1.32v.6c-2.02,1-3.04,1.53-5.06,2.65Z"/>
      </g>
    </g>
  </g>
  <polyline class="st1" points="88.54 126.13 103.32 65.96 101.59 61.69 84.71 128"/>
  <polyline class="st1" points="92.44 107.46 111.27 107.46 112.4 110.32 91.74 110.32"/>
  <polyline class="st1" points="174.65 57.54 162.08 116.99 166.57 121.98"/>
  <polygon class="st1" points="207 59.29 197.41 112.7 199.79 114.77 210.2 60.29 207 59.29"/>
  <polyline class="st1" points="220.27 106.08 235.62 60.37 232.64 60.35 219.03 104.8"/>
  <path class="st1" d="M249.5,89.03s1.61,2.68-4.33,2.06c-5.94-.62-21.47,2.06-21.47,2.06l-1.51-1.48c10.74-1.62,16.12-2.35,26.86-2.64"/>
  <polyline class="st1" points="110.43 292.98 110.43 260.06 108.27 257.1 109.35 293.14"/>
  <polyline class="st1" points="141.68 252.18 130.18 286.7 131.63 290.59 143.46 255.66"/>
  <polyline class="st1" points="213.13 291.06 226.12 242.08 223.23 242.3 211.2 291.27"/>
  <polyline class="st1" points="263.49 290.51 263.49 240.77 260.81 237.06 262.15 292.53"/>
  <polyline class="st1" points="293.92 241 293.92 278.71 296.6 281.09 295.26 239.93"/>
  <polyline class="st1" points="343.66 247.53 331.72 273.24 335.07 273.72 345.41 248.63"/>
</svg>